<svg viewBox="0 0 31 31" xmlns="http://www.w3.org/2000/svg" xml:space="preserve" style="fill-rule:evenodd;clip-rule:evenodd;stroke-linejoin:round;stroke-miterlimit:2"><path style="fill:none" d="M0 0h93.04v30.36H0z" transform="scale(.3266 1)"/><path d="M21.69 1.46A15.228 15.228 0 0 0 4.7 4.2C1.8 7 26.82 3.9 21.69 1.46Z" style="fill:#fcc397;fill-rule:nonzero" transform="translate(.011)"/><path d="M27 5.7s-1.2 1.7-5 2.18c-7.62 1-20.69 1.06-20.67 1A15.235 15.235 0 0 1 4.7 4.2c1.656.518 3.412.632 5.12.33 2.8-.53 5.28-2.13 8.05-2.79a12.546 12.546 0 0 1 3.82-.28A15.286 15.286 0 0 1 27 5.7Z" style="fill:#fc9f95;fill-rule:nonzero" transform="translate(.011)"/><path d="M30.17 12.8c0 .06-17.17 1.68-25.54 1.21a6.22 6.22 0 0 1-4.32-1.9A14.73 14.73 0 0 1 1.36 8.9a16.567 16.567 0 0 1 8-2.06c3.46 0 6.85 1.19 10.32 1.1A14.788 14.788 0 0 0 27 5.7a15.002 15.002 0 0 1 3.17 7.1Z" style="fill:#f77c88;fill-rule:nonzero" transform="translate(.011)"/><path d="M30.36 15.18v.25a46.842 46.842 0 0 1-10.92 1.13A192.73 192.73 0 0 1 0 15.05c.011-.988.115-1.972.31-2.94a11.192 11.192 0 0 0 7 1.63 19.838 19.838 0 0 0 5.51-1.67 34.155 34.155 0 0 1 5.41-2 14.088 14.088 0 0 1 12 2.73c.109.788.152 1.584.13 2.38Z" style="fill:#f25192;fill-rule:nonzero" transform="translate(.011)"/><path d="M13.14 20.11C8.59 21 .77 20 .75 19.92c-.5-1.53-.753-3.13-.75-4.74v-.13a12.286 12.286 0 0 1 2.29-1.42 12 12 0 0 1 6.32-1.13c2.126.306 4.193.933 6.13 1.86a50.972 50.972 0 0 0 5 2c.26.07-1.58 2.82-6.6 3.75Z" style="fill:#d34ca3;fill-rule:nonzero" transform="translate(.011)"/><path d="M29.81 19.23c-.32.54-3.34 2.35-7.44 2.66-5.43.41-11.84-1.23-9.71-2.06 3.34-1.32 6.25-3.68 9.71-4.67a13.37 13.37 0 0 1 8 .27 14.847 14.847 0 0 1-.56 3.8Z" style="fill:#9a50a5;fill-rule:nonzero" transform="translate(.011)"/><path d="M28.34 22.75c-2.62 4.55-21.63 5.69-24.41 2.63a15.431 15.431 0 0 1-3.18-5.46 12.256 12.256 0 0 1 7.7-1.54c3.4.46 6.44 2.36 9.8 3.1 2.717.613 5.553.447 8.18-.48a15.158 15.158 0 0 0 3.38-1.72 14.982 14.982 0 0 1-1.47 3.47Z" style="fill:#59569e;fill-rule:nonzero" transform="translate(.011)"/><path d="M28.36 22.71a15.195 15.195 0 0 1-13.18 7.648A15.186 15.186 0 0 1 3.93 25.37c.46.18 1 .33 1.45.47 2.658.722 5.465.698 8.11-.07 1.69-.5 3.27-1.29 4.92-1.88a22.426 22.426 0 0 1 10-1.18h-.05Z" style="fill:#39477f;fill-rule:nonzero" transform="translate(.011)"/></svg>